<?xml version="1.0" encoding="UTF-8" standalone="no"?>
<!DOCTYPE svg PUBLIC "-//W3C//DTD SVG 1.1//EN" "http://www.w3.org/Graphics/SVG/1.1/DTD/svg11.dtd">
<!-- Created with Vectornator (http://vectornator.io/) -->
<svg height="100%" stroke-miterlimit="10" style="fill-rule:nonzero;clip-rule:evenodd;stroke-linecap:round;stroke-linejoin:round;" version="1.1" viewBox="0 0 295.602 46.1249" width="100%" xml:space="preserve" xmlns="http://www.w3.org/2000/svg" xmlns:vectornator="http://vectornator.io" xmlns:xlink="http://www.w3.org/1999/xlink">
<defs/>
<g id="Camada-1" vectornator:layerName="Camada 1">
<g opacity="1">
<path d="M23.994 18.9539L17.388 18.9539C17.2674 18.0339 16.9582 17.2043 16.4605 16.4653C15.7365 15.4699 14.6129 14.9722 13.0896 14.9722C10.9178 14.9722 9.43223 16.0506 8.63288 18.2073C8.21058 19.3535 7.99943 20.8768 7.99943 22.7772C7.99943 24.587 8.21058 26.0424 8.63288 27.1434C9.40207 29.1946 10.8499 30.2202 12.9765 30.2202C14.4847 30.2202 15.5556 29.813 16.189 28.9985C16.8224 28.1841 17.207 27.1283 17.3428 25.8313L23.9261 25.8313C23.7753 27.792 23.0664 29.647 21.7995 31.3966C19.7785 34.2169 16.7847 35.6271 12.8182 35.6271C8.85157 35.6271 5.93319 34.4507 4.06301 32.0979C2.19283 29.7451 1.25774 26.691 1.25774 22.9355C1.25774 18.6975 2.29087 15.402 4.35711 13.0492C6.42335 10.6964 9.27387 9.52002 12.9086 9.52002C16.0005 9.52002 18.5305 10.2138 20.4987 11.6013C22.4669 12.9889 23.632 15.4397 23.994 18.9539Z" fill="#00ddff" fill-rule="nonzero" opacity="1" stroke="none"/>
<path d="M40.8256 16.0581C38.2315 16.0581 36.4895 16.9027 35.5996 18.5919C35.1019 19.5421 34.8531 21.005 34.8531 22.9808L34.8531 34.7674L28.3602 34.7674L28.3602 10.1082L34.5137 10.1082L34.5137 14.4066C35.5091 12.7627 36.3764 11.639 37.1154 11.0358C38.3219 10.0253 39.8905 9.52002 41.821 9.52002C41.9416 9.52002 42.0435 9.52379 42.1264 9.53133C42.2094 9.53887 42.3941 9.55018 42.6807 9.56526L42.6807 16.1712C42.2735 16.126 41.9115 16.0958 41.5948 16.0807C41.278 16.0656 41.0216 16.0581 40.8256 16.0581Z" fill="#00ddff" fill-rule="nonzero" opacity="1" stroke="none"/>
<path d="M67.5661 27.528C67.4002 28.991 66.6385 30.4766 65.2812 31.9848C63.1697 34.3828 60.2136 35.5818 56.4129 35.5818C53.2758 35.5818 50.5083 34.5713 48.1102 32.5503C45.7122 30.5294 44.5131 27.2415 44.5131 22.6867C44.5131 18.4184 45.5953 15.1456 47.7596 12.8682C49.9238 10.5908 52.7329 9.45215 56.1867 9.45215C58.2378 9.45215 60.0854 9.83674 61.7293 10.6059C63.3733 11.3751 64.7307 12.5892 65.8015 14.2482C66.7667 15.7112 67.3927 17.4079 67.6792 19.3384C67.8451 20.4696 67.913 22.0985 67.8828 24.225L51.006 24.225C51.0965 26.6985 51.8732 28.4329 53.3362 29.4284C54.226 30.0467 55.2968 30.3559 56.5486 30.3559C57.8759 30.3559 58.9542 29.9789 59.7837 29.2248C60.2362 28.8175 60.6359 28.252 60.9828 27.528L67.5661 27.528ZM61.1864 19.9719C61.0808 18.2676 60.5642 16.9743 59.6367 16.092C58.7091 15.2097 57.5591 14.7686 56.1867 14.7686C54.6935 14.7686 53.536 15.2361 52.714 16.1712C51.892 17.1063 51.3755 18.3732 51.1643 19.9719L61.1864 19.9719Z" fill="#00ddff" fill-rule="nonzero" opacity="1" stroke="none"/>
<path d="M73.154 12.7777C74.8583 10.6059 77.7842 9.52002 81.9318 9.52002C84.6315 9.52002 87.0295 10.0554 89.1259 11.1263C91.2223 12.1971 92.2705 14.2181 92.2705 17.1893L92.2705 28.5008C92.2705 29.2851 92.2856 30.2353 92.3158 31.3513C92.361 32.1959 92.4892 32.769 92.7004 33.0707C92.9115 33.3723 93.2283 33.6212 93.6505 33.8172L93.6505 34.7674L86.6374 34.7674C86.4413 34.2697 86.3056 33.8022 86.2302 33.3648C86.1548 32.9274 86.0944 32.4297 86.0492 31.8717C85.1593 32.8369 84.1338 33.6589 82.9724 34.3376C81.5849 35.1369 80.0164 35.5366 78.2668 35.5366C76.0347 35.5366 74.1909 34.8994 72.7355 33.6249C71.2801 32.3505 70.5523 30.5444 70.5523 28.2067C70.5523 25.1752 71.7212 22.9808 74.0589 21.6234C75.3409 20.8844 77.2262 20.3565 79.7147 20.0398L81.9092 19.7683C83.1006 19.6175 83.9528 19.4289 84.4656 19.2027C85.3856 18.8106 85.8456 18.1998 85.8456 17.3702C85.8456 16.3597 85.4949 15.6622 84.7936 15.2776C84.0923 14.893 83.0629 14.7007 81.7055 14.7007C80.1823 14.7007 79.1039 15.0778 78.4704 15.8319C78.018 16.3899 77.7163 17.144 77.5655 18.0942L71.3442 18.0942C71.4799 15.9374 72.0832 14.1653 73.154 12.7777ZM77.9501 30.1071C78.5534 30.6048 79.2924 30.8536 80.1672 30.8536C81.5547 30.8536 82.8329 30.4464 84.0018 29.632C85.1707 28.8175 85.7777 27.332 85.823 25.1752L85.823 22.7772C85.4157 23.0336 85.0047 23.2409 84.59 23.3993C84.1752 23.5577 83.6059 23.7047 82.8819 23.8404L81.4341 24.1119C80.0767 24.3532 79.1039 24.6473 78.5157 24.9942C77.5203 25.5824 77.0226 26.4949 77.0226 27.7316C77.0226 28.8326 77.3317 29.6244 77.9501 30.1071Z" fill="#00ddff" fill-rule="nonzero" opacity="1" stroke="none"/>
<path d="M119.328 18.9539L112.722 18.9539C112.601 18.0339 112.292 17.2043 111.794 16.4653C111.07 15.4699 109.947 14.9722 108.423 14.9722C106.252 14.9722 104.766 16.0506 103.967 18.2073C103.544 19.3535 103.333 20.8768 103.333 22.7772C103.333 24.587 103.544 26.0424 103.967 27.1434C104.736 29.1946 106.184 30.2202 108.31 30.2202C109.819 30.2202 110.889 29.813 111.523 28.9985C112.156 28.1841 112.541 27.1283 112.677 25.8313L119.26 25.8313C119.109 27.792 118.4 29.647 117.133 31.3966C115.112 34.2169 112.119 35.6271 108.152 35.6271C104.185 35.6271 101.267 34.4507 99.3968 32.0979C97.5266 29.7451 96.5916 26.691 96.5916 22.9355C96.5916 18.6975 97.6247 15.402 99.6909 13.0492C101.757 10.6964 104.608 9.52002 108.242 9.52002C111.334 9.52002 113.864 10.2138 115.833 11.6013C117.801 12.9889 118.966 15.4397 119.328 18.9539Z" fill="#00ddff" fill-rule="nonzero" opacity="1" stroke="none"/>
<path d="M135.051 30.1749L135.051 34.9936L131.997 35.1068C128.95 35.2123 126.869 34.6845 125.753 33.5231C125.029 32.7841 124.667 31.6454 124.667 30.1071L124.667 14.9269L121.228 14.9269L121.228 10.3344L124.667 10.3344L124.667 3.45702L131.047 3.45702L131.047 10.3344L135.051 10.3344L135.051 14.9269L131.047 14.9269L131.047 27.9579C131.047 28.9684 131.175 29.598 131.431 29.8469C131.688 30.0957 132.472 30.2202 133.784 30.2202C133.98 30.2202 134.187 30.2164 134.406 30.2089C134.625 30.2013 134.84 30.19 135.051 30.1749Z" fill="#00ddff" fill-rule="nonzero" opacity="1" stroke="none"/>
<path d="M145.819 10.1082L145.819 34.7674L139.281 34.7674L139.281 10.1082L145.819 10.1082ZM145.819 1.21733L145.819 7.16721L139.281 7.16721L139.281 1.21733L145.819 1.21733Z" fill="#00ddff" fill-rule="nonzero" opacity="1" stroke="none"/>
<path d="M149.643 10.1082L156.882 10.1082L162.018 28.2972L167.266 10.1082L174.189 10.1082L165.298 34.7674L158.488 34.7674L149.643 10.1082Z" fill="#00ddff" fill-rule="nonzero" opacity="1" stroke="none"/>
<path d="M198.939 27.528C198.773 28.991 198.011 30.4766 196.654 31.9848C194.542 34.3828 191.586 35.5818 187.785 35.5818C184.648 35.5818 181.881 34.5713 179.483 32.5503C177.085 30.5294 175.886 27.2415 175.886 22.6867C175.886 18.4184 176.968 15.1456 179.132 12.8682C181.296 10.5908 184.105 9.45215 187.559 9.45215C189.61 9.45215 191.458 9.83674 193.102 10.6059C194.746 11.3751 196.103 12.5892 197.174 14.2482C198.139 15.7112 198.765 17.4079 199.052 19.3384C199.218 20.4696 199.285 22.0985 199.255 24.225L182.378 24.225C182.469 26.6985 183.246 28.4329 184.709 29.4284C185.598 30.0467 186.669 30.3559 187.921 30.3559C189.248 30.3559 190.327 29.9789 191.156 29.2248C191.609 28.8175 192.008 28.252 192.355 27.528L198.939 27.528ZM192.559 19.9719C192.453 18.2676 191.937 16.9743 191.009 16.092C190.082 15.2097 188.932 14.7686 187.559 14.7686C186.066 14.7686 184.908 15.2361 184.086 16.1712C183.264 17.1063 182.748 18.3732 182.537 19.9719L192.559 19.9719Z" fill="#00ddff" fill-rule="nonzero" opacity="1" stroke="none"/>
<path d="M203.486 28.0257L210.341 28.0257L210.341 34.7674L203.486 34.7674L203.486 28.0257Z" fill="#8b8b8b" fill-rule="nonzero" opacity="1" stroke="none"/>
<path d="M217.399 12.7777C219.103 10.6059 222.029 9.52002 226.177 9.52002C228.876 9.52002 231.275 10.0554 233.371 11.1263C235.467 12.1971 236.516 14.2181 236.516 17.1893L236.516 28.5008C236.516 29.2851 236.531 30.2353 236.561 31.3513C236.606 32.1959 236.734 32.769 236.945 33.0707C237.157 33.3723 237.473 33.6212 237.896 33.8172L237.896 34.7674L230.882 34.7674C230.686 34.2697 230.551 33.8022 230.475 33.3648C230.4 32.9274 230.339 32.4297 230.294 31.8717C229.404 32.8369 228.379 33.6589 227.217 34.3376C225.83 35.1369 224.261 35.5366 222.512 35.5366C220.28 35.5366 218.436 34.8994 216.98 33.6249C215.525 32.3505 214.797 30.5444 214.797 28.2067C214.797 25.1752 215.966 22.9808 218.304 21.6234C219.586 20.8844 221.471 20.3565 223.96 20.0398L226.154 19.7683C227.346 19.6175 228.198 19.4289 228.711 19.2027C229.631 18.8106 230.091 18.1998 230.091 17.3702C230.091 16.3597 229.74 15.6622 229.039 15.2776C228.337 14.893 227.308 14.7007 225.951 14.7007C224.427 14.7007 223.349 15.0778 222.715 15.8319C222.263 16.3899 221.961 17.144 221.811 18.0942L215.589 18.0942C215.725 15.9374 216.328 14.1653 217.399 12.7777ZM222.195 30.1071C222.798 30.6048 223.537 30.8536 224.412 30.8536C225.8 30.8536 227.078 30.4464 228.247 29.632C229.416 28.8175 230.023 27.332 230.068 25.1752L230.068 22.7772C229.661 23.0336 229.25 23.2409 228.835 23.3993C228.42 23.5577 227.851 23.7047 227.127 23.8404L225.679 24.1119C224.322 24.3532 223.349 24.6473 222.761 24.9942C221.765 25.5824 221.268 26.4949 221.268 27.7316C221.268 28.8326 221.577 29.6244 222.195 30.1071Z" fill="#8b8b8b" fill-rule="nonzero" opacity="1" stroke="none"/>
<path d="M262.894 12.7551C264.885 14.8817 265.88 18.0037 265.88 22.1211C265.88 26.4647 264.904 29.7752 262.951 32.0526C260.998 34.33 258.483 35.4687 255.406 35.4687C253.445 35.4687 251.816 34.9786 250.519 33.9982C249.81 33.4553 249.117 32.6635 248.438 31.6228L248.438 44.4727L242.058 44.4727L242.058 10.1082L248.234 10.1082L248.234 13.7505C248.928 12.6797 249.667 11.8351 250.451 11.2168C251.884 10.1158 253.588 9.56526 255.564 9.56526C258.445 9.56526 260.888 10.6286 262.894 12.7551ZM259.229 22.4378C259.229 20.5375 258.796 18.8558 257.928 17.3929C257.061 15.9299 255.655 15.1984 253.709 15.1984C251.371 15.1984 249.765 16.307 248.89 18.524C248.438 19.7004 248.212 21.1935 248.212 23.0034C248.212 25.869 248.973 27.8824 250.497 29.0438C251.402 29.7225 252.472 30.0618 253.709 30.0618C255.504 30.0618 256.873 29.368 257.815 27.9805C258.758 26.5929 259.229 24.7454 259.229 22.4378Z" fill="#8b8b8b" fill-rule="nonzero" opacity="1" stroke="none"/>
<path d="M291.196 12.7551C293.186 14.8817 294.182 18.0037 294.182 22.1211C294.182 26.4647 293.205 29.7752 291.252 32.0526C289.299 34.33 286.784 35.4687 283.707 35.4687C281.747 35.4687 280.118 34.9786 278.821 33.9982C278.112 33.4553 277.418 32.6635 276.739 31.6228L276.739 44.4727L270.36 44.4727L270.36 10.1082L276.536 10.1082L276.536 13.7505C277.23 12.6797 277.969 11.8351 278.753 11.2168C280.186 10.1158 281.89 9.56526 283.866 9.56526C286.746 9.56526 289.19 10.6286 291.196 12.7551ZM287.531 22.4378C287.531 20.5375 287.097 18.8558 286.23 17.3929C285.363 15.9299 283.956 15.1984 282.011 15.1984C279.673 15.1984 278.067 16.307 277.192 18.524C276.739 19.7004 276.513 21.1935 276.513 23.0034C276.513 25.869 277.275 27.8824 278.798 29.0438C279.703 29.7225 280.774 30.0618 282.011 30.0618C283.805 30.0618 285.174 29.368 286.117 27.9805C287.059 26.5929 287.531 24.7454 287.531 22.4378Z" fill="#8b8b8b" fill-rule="nonzero" opacity="1" stroke="none"/>
</g>
</g>
</svg>
